<svg xmlns="http://www.w3.org/2000/svg" width="877.863" height="295.245" viewBox="0 0 877.863 295.245">
  <g id="logo-ciser" transform="translate(0.005 -0.002)">
    <g id="Layer_1" data-name="Layer 1">
      <path id="Caminho_1" data-name="Caminho 1" d="M295,66.27c-15.16,15.34-26.41,31.79-33.82,48.45a170.211,170.211,0,0,1,25.28-32.33C347.51,20.6,449.93.6,515.15,37.73,578,73.51,583.41,149.31,529.07,210.07c2.34-2.16,4.64-4.36,6.88-6.63,62.3-63,60.68-147.13-5.86-185S357.27,3.24,295,66.27Z" fill="#e1232b" fill-rule="evenodd"/>
      <path id="Caminho_2" data-name="Caminho 2" d="M331.06,288.87a179.51,179.51,0,0,0,60.5,5.9,168.942,168.942,0,0,1-40.43-6.11c-77.53-21.92-104.38-95.39-59.95-164.06C334,58.42,427.39,20.81,503.5,37.78c-2.71-.94-5.48-1.82-8.32-2.62C416.1,12.8,310.37,51.48,265.06,121.53S251.98,266.53,331.06,288.87Z" fill="#e1232b" fill-rule="evenodd"/>
      <path id="Caminho_3" data-name="Caminho 3" d="M603.74,113.36a94.631,94.631,0,0,0-13.57-47,94.259,94.259,0,0,1,6.72,33c1.85,70.41-68.82,141.38-157.81,158.48-85.77,16.48-157.28-23.09-164-89-.12,2.58-.16,5.17-.09,7.75,1.88,71.82,75.81,120.48,166.59,103s164.07-94.38,162.18-166.2Z" fill="#e1232b" fill-rule="evenodd"/>
      <path id="Caminho_4" data-name="Caminho 4" d="M212.42,80.36,174.75,208.45l49.44-.04,37.68-128.1-49.45.05Z" fill="#003671" fill-rule="evenodd"/>
      <path id="Caminho_5" data-name="Caminho 5" d="M80.77,185.08c-25.5,0-32.1-19.51-26.18-40.09s25.34-40.12,49.32-40.14c15.72,0,28.85,10.49,27.71,26.57h0l53.93-.32-.21-4.9c-2-29.36-30.71-50.88-72.24-50.85C63.15,75.39,13.53,106.59,2.28,145s20.13,69.59,70.08,69.55c41,0,81.8-21.07,101.31-49.89L176,160l-54.2.55c-11.62,16.74-26,24.49-41.07,24.5Z" fill="#003671" fill-rule="evenodd"/>
      <path id="Caminho_6" data-name="Caminho 6" d="M663.73,130.08l5.53-20.17,57.83-.04,8.66-28.18-106.57.13L592.22,208.16l106.61-.1,8.65-29.59-57.86.03,5.51-20.24,44.32-.03,8.66-28.18-44.38.03Z" fill="#003671" fill-rule="evenodd"/>
      <path id="Caminho_7" data-name="Caminho 7" d="M803.39,143.51c12.34-7.33,17.73-11.7,19.5-17.76,1.55-5.29,0-14.57-14.52-14.56H789.63l-27.84,96.58H711.7l37-126.43,73.95-.06c48,0,60.06,18.49,53.6,40.49-4.47,15.33-25.14,28.53-34.63,32.11l18.06,53.78-55.94.05-9.52-39c-3.08-9.94-1.77-18.78,9.18-25.21Z" fill="#003671" fill-rule="evenodd"/>
      <path id="Caminho_8" data-name="Caminho 8" d="M478.49,112.27c.74-8.19-11.07-24-35.05-24-16.63,0-33.35,2.49-37.88,15.28-4.44,12.55,20.88,19,37.95,22.84,39.06,8.44,98.73,12.93,81.8,58.88-13.2,35.82-70.17,50.87-127.77,49.09-41.45-1.28-87.31-19.28-89.84-60l63.3,1.9c1.94,19.9,23.45,26.62,39.46,27.74,17.14,1.21,41.4-6.52,45.56-17.83,8.52-23.1-48.62-19.55-96.79-37.29-22.41-8.23-31.22-24.23-24.17-42.5C349.59,68.86,398,55,451.94,56.27c49.55,1.2,86.87,18.73,92.72,57.89l-66.17-1.89Z" fill="#003671" fill-rule="evenodd"/>
    </g>
  </g>
</svg>
