<?xml version="1.0" encoding="utf-8"?>
<!-- Generator: Adobe Illustrator 25.1.0, SVG Export Plug-In . SVG Version: 6.00 Build 0)  -->
<svg version="1.1" id="Layer_1" xmlns="http://www.w3.org/2000/svg" xmlns:xlink="http://www.w3.org/1999/xlink" x="0px" y="0px"
	 viewBox="0 0 60.2 37.7" style="enable-background:new 0 0 60.2 37.7;" xml:space="preserve">
<style type="text/css">
	.st0{fill:#0067B1;}
	.st1{fill:#1A62AF;}
</style>
<g>
	<g>
		<g>
			<path d="M3.9,17.1h6.7c3,0,4.2,0.8,4.2,2.3c0,1.2-1,1.7-2.3,2v0c1.4,0.1,2.7,0.7,2.7,2.2c0,0.7-0.3,1.2-0.7,1.6
				c-0.6,0.5-1.3,0.7-3.4,0.7H3.9V17.1z M8,20.7h1.2c1.2,0,1.6-0.4,1.6-1c0-0.6-0.3-1-1.6-1H8V20.7z M8,24.3h1.2
				c1.4,0,1.9-0.3,1.9-1.1c0-0.7-0.5-1.1-1.9-1.1H8V24.3z"/>
			<path d="M29.6,17.1h6L39,23h0v-5.9h3.6v8.7h-5.9l-3.5-6.2h0v6.2h-3.6V17.1z"/>
			<path d="M28.8,21.5c0-0.8,0-0.7,0-1c0-0.9-0.5-1.9-1-2.4c-0.9-0.9-2.7-1-5.5-1c-2.8,0-4.7,0.1-5.5,1c-0.5,0.5-1,1.5-1,2.4
				c0,0.3,0,0.2,0,1v0c0,0.8,0,0.7,0,1c0,0.9,0.5,1.9,1,2.4c0.9,0.9,2.7,1,5.5,1c2.8,0,4.7-0.1,5.5-1c0.5-0.5,1-1.5,1-2.4
				C28.8,22.2,28.8,22.3,28.8,21.5L28.8,21.5z M24.5,21.5L24.5,21.5c0,0.9-0.1,1.8-0.6,2.2c-0.3,0.2-0.5,0.4-1.7,0.4
				c-1.2,0-1.5-0.2-1.7-0.4c-0.5-0.4-0.6-1.3-0.6-2.2v0v0v0c0-0.9,0.1-1.8,0.6-2.2c0.3-0.2,0.5-0.4,1.7-0.4c1.2,0,1.5,0.2,1.7,0.4
				C24.4,19.7,24.5,20.6,24.5,21.5L24.5,21.5L24.5,21.5z"/>
			<path d="M43.8,17.1v8.7l6,0c2.8,0,4.7-0.1,5.5-1c0.5-0.5,1-1.5,1-2.4c0-0.3,0-0.2,0-1v0c0-0.8,0-0.7,0-1c0-0.9-0.5-1.9-1-2.4
				c-0.9-0.9-2.7-1-5.5-1L43.8,17.1z M47.9,24.1v-5.2l1.9,0c1.2,0,1.5,0.2,1.7,0.4c0.5,0.4,0.6,1.3,0.6,2.2v0v0v0
				c0,0.9-0.1,1.8-0.6,2.2c-0.3,0.2-0.5,0.4-1.7,0.4L47.9,24.1z"/>
		</g>
		<g>
			<path d="M21.7,30.8c-0.5-0.2-0.7-0.2-0.7-0.5c0-0.3,0.3-0.3,0.6-0.3c0.3,0,0.5,0.1,0.7,0.2c0,0,0.1,0,0.1,0c0.1,0,0.1,0,0.1-0.1
				l0.1-0.2c0-0.1,0-0.2-0.1-0.2c-0.3-0.2-0.7-0.3-1-0.3c-0.7,0-1.2,0.4-1.2,0.9c0,0.7,0.6,0.9,1.1,1c0.5,0.2,0.7,0.3,0.7,0.6
				c0,0.3-0.4,0.4-0.7,0.4c-0.3,0-0.7-0.2-0.9-0.4c0,0-0.1-0.1-0.2-0.1c-0.1,0-0.1,0-0.1,0.1l-0.1,0.2c0,0.1,0,0.2,0,0.2
				c0.3,0.3,0.8,0.5,1.2,0.5c0.8,0,1.3-0.4,1.3-1C22.8,31.1,22.2,31,21.7,30.8"/>
			<path d="M25.1,29.5c0-0.1-0.1-0.1-0.2-0.1h-0.2c-0.1,0-0.1,0-0.2,0.1l-1.4,3.1c0,0.1,0,0.1,0,0.2c0,0.1,0.1,0.1,0.2,0.1h0.2
				c0.1,0,0.1,0,0.2-0.1L24,32h1.6l0.4,0.8c0,0.1,0.1,0.1,0.2,0.1h0.2c0.1,0,0.1,0,0.2-0.1c0-0.1,0-0.1,0-0.2L25.1,29.5z M24.2,31.4
				l0.5-1.2l0.5,1.2H24.2z"/>
			<path d="M27.4,29.4h-0.2c-0.1,0-0.2,0.1-0.2,0.2v3.1c0,0.1,0.1,0.2,0.2,0.2h0.2c0.1,0,0.2-0.1,0.2-0.2v-3.1
				C27.6,29.5,27.5,29.4,27.4,29.4"/>
			<path d="M31.3,29.4h-0.2c-0.1,0-0.2,0.1-0.2,0.2v2.3l-1.8-2.4c0,0-0.1-0.1-0.1-0.1h-0.2c-0.1,0-0.2,0.1-0.2,0.2v3.1
				c0,0.1,0.1,0.2,0.2,0.2H29c0.1,0,0.2-0.1,0.2-0.2v-2.3l1.7,2.4c0,0,0.1,0.1,0.1,0.1h0.2c0.1,0,0.2-0.1,0.2-0.2v-3.1
				C31.5,29.5,31.4,29.4,31.3,29.4"/>
			<path d="M34.5,29.4h-2.3c-0.1,0-0.2,0.1-0.2,0.2v0.2c0,0.1,0.1,0.2,0.2,0.2h0.9v2.8c0,0.1,0.1,0.2,0.2,0.2h0.2
				c0.1,0,0.2-0.1,0.2-0.2v-2.8h0.9c0.1,0,0.2-0.1,0.2-0.2v-0.2C34.7,29.5,34.6,29.4,34.5,29.4"/>
			<path d="M35.9,31.1h-1c-0.1,0-0.2,0.1-0.2,0.2v0.2c0,0.1,0.1,0.2,0.2,0.2h1c0.1,0,0.2-0.1,0.2-0.2v-0.2
				C36.1,31.2,36,31.1,35.9,31.1"/>
			<path d="M39.8,31h-0.2c0,0,0,0,0,0h-0.6c-0.1,0-0.2,0.1-0.2,0.2v0.2c0,0.1,0.1,0.2,0.2,0.2h0.4v0.6c-0.2,0.1-0.5,0.2-0.7,0.2
				c-0.7,0-1.3-0.5-1.3-1.2c0-0.7,0.6-1.2,1.3-1.2c0.3,0,0.6,0.1,0.9,0.3c0,0,0.1,0.1,0.1,0c0.1,0,0.1,0,0.1-0.1l0.1-0.1
				c0.1-0.1,0.1-0.2,0-0.3c-0.3-0.3-0.8-0.5-1.2-0.5c-1,0-1.8,0.8-1.8,1.7c0,1,0.8,1.8,1.8,1.8c0.4,0,0.9-0.2,1.2-0.5
				c0,0,0.1-0.1,0.1-0.1v-1.1C40,31,39.9,31,39.8,31"/>
			<path d="M42.4,29.4c-1,0-1.8,0.8-1.8,1.7c0,1,0.8,1.8,1.8,1.8c1,0,1.8-0.8,1.8-1.8C44.2,30.1,43.4,29.4,42.4,29.4 M42.4,32.3
				c-0.7,0-1.2-0.5-1.2-1.2c0-0.7,0.6-1.2,1.2-1.2c0.7,0,1.2,0.5,1.2,1.2C43.6,31.8,43.1,32.3,42.4,32.3"/>
			<path d="M47.2,31c0.2-0.2,0.3-0.4,0.3-0.7c0-0.6-0.4-1-1.2-1H45c-0.1,0-0.2,0.1-0.2,0.2v3.1c0,0.1,0.1,0.2,0.2,0.2h1.3
				c0.8,0,1.3-0.4,1.3-1C47.6,31.5,47.5,31.2,47.2,31 M46.3,30.8h-0.9v-0.9h0.9c0.3,0,0.6,0.1,0.6,0.4
				C46.9,30.6,46.7,30.8,46.3,30.8 M45.4,31.3h0.9c0.3,0,0.8,0.1,0.8,0.5c0,0.4-0.4,0.5-0.8,0.5h-0.9V31.3z"/>
			<path d="M49.9,29.5c0-0.1-0.1-0.1-0.2-0.1h-0.2c-0.1,0-0.1,0-0.2,0.1l-1.4,3.1c0,0.1,0,0.1,0,0.2c0,0.1,0.1,0.1,0.2,0.1h0.2
				c0.1,0,0.1,0,0.2-0.1l0.4-0.8h1.6l0.4,0.8c0,0.1,0.1,0.1,0.2,0.1h0.2c0.1,0,0.1,0,0.2-0.1c0-0.1,0-0.1,0-0.2L49.9,29.5z
				 M49.1,31.4l0.5-1.2l0.5,1.2H49.1z"/>
			<path d="M52.2,29.4h-0.2c-0.1,0-0.2,0.1-0.2,0.2v3.1c0,0.1,0.1,0.2,0.2,0.2h0.2c0.1,0,0.2-0.1,0.2-0.2v-3.1
				C52.4,29.5,52.3,29.4,52.2,29.4"/>
			<path d="M56.1,29.4H56c-0.1,0-0.2,0.1-0.2,0.2v2.3L54,29.4c0,0-0.1-0.1-0.1-0.1h-0.2c-0.1,0-0.2,0.1-0.2,0.2v3.1
				c0,0.1,0.1,0.2,0.2,0.2h0.2c0.1,0,0.2-0.1,0.2-0.2v-2.3l1.7,2.4c0,0,0.1,0.1,0.1,0.1h0.2c0.1,0,0.2-0.1,0.2-0.2v-3.1
				C56.3,29.5,56.2,29.4,56.1,29.4"/>
		</g>
		<g>
			<polygon class="st0" points="47.6,15.4 42.6,11 42.6,15.4 			"/>
			<path class="st1" d="M3.9,4.9v10.5h7.2V9H7V6.9h13.3V9h-4v6.4h6.4V6.9h12.5v1.8h-7.2v1.6h6.3V12h-6.3v1.6h7.3v1.8h2.2V7h5.2v4
				L47,6.9h6.3l-4.9,3.8l5.7,4.7h2.3V4.9L3.9,4.9z"/>
		</g>
	</g>
</g>
</svg>
